<svg width="1600" height="900" viewBox="0 0 1600 900" fill="none" xmlns="http://www.w3.org/2000/svg">
  <rect width="1600" height="900" fill="#F6F7FB"/>
  <rect x="88" y="72" width="1424" height="756" rx="24" fill="#FFFFFF" stroke="#D8DEE9" stroke-width="2"/>
  <rect x="128" y="112" width="1344" height="168" rx="18" fill="#111827"/>
  <text x="168" y="164" fill="#9CA3AF" font-family="Arial, Helvetica, sans-serif" font-size="20" font-weight="700" letter-spacing="2">AUTOMATION FLOW / COURSE DIGEST WORKFLOW</text>
  <text x="168" y="232" fill="#FFFFFF" font-family="Arial, Helvetica, sans-serif" font-size="58" font-weight="800">From raw course material to study blocks</text>
  <rect x="128" y="348" width="300" height="142" rx="18" fill="#FFFFFF" stroke="#D8DEE9" stroke-width="2"/>
  <text x="168" y="405" fill="#111827" font-family="Arial, Helvetica, sans-serif" font-size="30" font-weight="800">1. Ingest</text>
  <text x="168" y="450" fill="#4B5563" font-family="Arial, Helvetica, sans-serif" font-size="23">Course URL or transcript</text>
  <rect x="500" y="348" width="300" height="142" rx="18" fill="#FFFFFF" stroke="#D8DEE9" stroke-width="2"/>
  <text x="540" y="405" fill="#111827" font-family="Arial, Helvetica, sans-serif" font-size="30" font-weight="800">2. Structure</text>
  <text x="540" y="450" fill="#4B5563" font-family="Arial, Helvetica, sans-serif" font-size="23">Modules and key ideas</text>
  <rect x="872" y="348" width="300" height="142" rx="18" fill="#FFFFFF" stroke="#D8DEE9" stroke-width="2"/>
  <text x="912" y="405" fill="#111827" font-family="Arial, Helvetica, sans-serif" font-size="30" font-weight="800">3. Generate</text>
  <text x="912" y="450" fill="#4B5563" font-family="Arial, Helvetica, sans-serif" font-size="23">Notes and checks</text>
  <rect x="1244" y="348" width="228" height="142" rx="18" fill="#F0FDF4" stroke="#BBF7D0" stroke-width="2"/>
  <text x="1284" y="405" fill="#14532D" font-family="Arial, Helvetica, sans-serif" font-size="30" font-weight="800">4. Write</text>
  <text x="1284" y="450" fill="#166534" font-family="Arial, Helvetica, sans-serif" font-size="23">Notion blocks</text>
  <path d="M448 419H480" stroke="#94A3B8" stroke-width="6" stroke-linecap="round"/>
  <path d="M468 403L484 419L468 435" stroke="#94A3B8" stroke-width="6" stroke-linecap="round" stroke-linejoin="round"/>
  <path d="M820 419H852" stroke="#94A3B8" stroke-width="6" stroke-linecap="round"/>
  <path d="M840 403L856 419L840 435" stroke="#94A3B8" stroke-width="6" stroke-linecap="round" stroke-linejoin="round"/>
  <path d="M1192 419H1224" stroke="#94A3B8" stroke-width="6" stroke-linecap="round"/>
  <path d="M1212 403L1228 419L1212 435" stroke="#94A3B8" stroke-width="6" stroke-linecap="round" stroke-linejoin="round"/>
  <rect x="128" y="580" width="426" height="144" rx="18" fill="#F8FAFC" stroke="#D8DEE9" stroke-width="2"/>
  <text x="168" y="642" fill="#111827" font-family="Arial, Helvetica, sans-serif" font-size="38" font-weight="800">Notebook template</text>
  <text x="168" y="684" fill="#64748B" font-family="Arial, Helvetica, sans-serif" font-size="24">Consistent structure for every course.</text>
  <rect x="588" y="580" width="426" height="144" rx="18" fill="#F8FAFC" stroke="#D8DEE9" stroke-width="2"/>
  <text x="628" y="642" fill="#111827" font-family="Arial, Helvetica, sans-serif" font-size="38" font-weight="800">Question scaffolds</text>
  <text x="628" y="684" fill="#64748B" font-family="Arial, Helvetica, sans-serif" font-size="24">Prompts make passive notes active.</text>
  <rect x="1048" y="580" width="424" height="144" rx="18" fill="#ECFDF5" stroke="#BBF7D0" stroke-width="2"/>
  <text x="1088" y="642" fill="#14532D" font-family="Arial, Helvetica, sans-serif" font-size="38" font-weight="800">Linked workspace</text>
  <text x="1088" y="684" fill="#166534" font-family="Arial, Helvetica, sans-serif" font-size="24">Everything lands inside Notion.</text>
</svg>
