<svg width="1600" height="900" viewBox="0 0 1600 900" fill="none" xmlns="http://www.w3.org/2000/svg">
  <rect width="1600" height="900" fill="#09111F"/>
  <rect x="64" y="64" width="1472" height="772" rx="36" fill="url(#bg)"/>
  <rect x="112" y="112" width="1376" height="676" rx="28" fill="#0F172A" stroke="#334155" stroke-width="2"/>
  <rect x="112" y="112" width="1376" height="120" rx="28" fill="#111827"/>
  <circle cx="166" cy="172" r="10" fill="#38BDF8"/>
  <circle cx="202" cy="172" r="10" fill="#22C55E"/>
  <circle cx="238" cy="172" r="10" fill="#F59E0B"/>
  <text x="286" y="182" fill="#E2E8F0" font-family="Arial, Helvetica, sans-serif" font-size="28" font-weight="700">course-digest-workflow</text>
  <text x="128" y="316" fill="#F8FAFC" font-family="Arial, Helvetica, sans-serif" font-size="64" font-weight="700">Automation Guide</text>
  <text x="128" y="380" fill="#94A3B8" font-family="Arial, Helvetica, sans-serif" font-size="30">Local preview for the companion CLI automation setup artifact.</text>
  <rect x="128" y="444" width="420" height="220" rx="24" fill="#111827" stroke="#38BDF8" stroke-width="2"/>
  <text x="164" y="502" fill="#38BDF8" font-family="Arial, Helvetica, sans-serif" font-size="24" font-weight="700">What the guide covers</text>
  <text x="164" y="556" fill="#E2E8F0" font-family="Arial, Helvetica, sans-serif" font-size="24">1. Environment variables</text>
  <text x="164" y="598" fill="#E2E8F0" font-family="Arial, Helvetica, sans-serif" font-size="24">2. Notion integration setup</text>
  <text x="164" y="640" fill="#E2E8F0" font-family="Arial, Helvetica, sans-serif" font-size="24">3. Claude + CLI wiring</text>
  <rect x="592" y="444" width="848" height="220" rx="24" fill="#020617" stroke="#1E293B" stroke-width="2"/>
  <rect x="636" y="492" width="270" height="24" rx="12" fill="#1D4ED8"/>
  <rect x="636" y="540" width="490" height="18" rx="9" fill="#334155"/>
  <rect x="636" y="578" width="426" height="18" rx="9" fill="#334155"/>
  <rect x="636" y="616" width="360" height="18" rx="9" fill="#334155"/>
  <rect x="1180" y="492" width="216" height="124" rx="20" fill="#0F172A" stroke="#22C55E" stroke-width="2"/>
  <text x="1214" y="548" fill="#86EFAC" font-family="Arial, Helvetica, sans-serif" font-size="24" font-weight="700">Setup Flow</text>
  <text x="1214" y="590" fill="#E2E8F0" font-family="Arial, Helvetica, sans-serif" font-size="22">Config -> Dry Run -></text>
  <text x="1214" y="620" fill="#E2E8F0" font-family="Arial, Helvetica, sans-serif" font-size="22">Notion writeback</text>
  <text x="128" y="742" fill="#64748B" font-family="Arial, Helvetica, sans-serif" font-size="22">Artifact modal preview used in the portfolio instead of sending the user to GitHub.</text>
  <defs>
    <linearGradient id="bg" x1="64" y1="64" x2="1536" y2="836" gradientUnits="userSpaceOnUse">
      <stop stop-color="#0F172A"/>
      <stop offset="1" stop-color="#111827"/>
    </linearGradient>
  </defs>
</svg>
