<svg width="1600" height="900" viewBox="0 0 1600 900" fill="none" xmlns="http://www.w3.org/2000/svg">
  <rect width="1600" height="900" fill="#F6F7FB"/>
  <rect x="88" y="72" width="1424" height="756" rx="24" fill="#FFFFFF" stroke="#D8DEE9" stroke-width="2"/>
  <rect x="128" y="112" width="1344" height="180" rx="18" fill="#111827"/>
  <text x="168" y="164" fill="#9CA3AF" font-family="Arial, Helvetica, sans-serif" font-size="20" font-weight="700" letter-spacing="2">ARCHITECTURE / PODCAST PIPELINE</text>
  <text x="168" y="232" fill="#FFFFFF" font-family="Arial, Helvetica, sans-serif" font-size="60" font-weight="800">Podcast link to structured knowledge base</text>
  <text x="168" y="276" fill="#CBD5E1" font-family="Arial, Helvetica, sans-serif" font-size="27">A CLI workflow extracts quotes, themes, summaries, and human evaluation signals into Notion.</text>
  <rect x="128" y="356" width="318" height="164" rx="18" fill="#FFFFFF" stroke="#D8DEE9" stroke-width="2"/>
  <text x="168" y="414" fill="#111827" font-family="Arial, Helvetica, sans-serif" font-size="32" font-weight="800">Podcast URL</text>
  <text x="168" y="462" fill="#4B5563" font-family="Arial, Helvetica, sans-serif" font-size="24">Episode source and metadata</text>
  <rect x="536" y="356" width="392" height="164" rx="18" fill="#FFFFFF" stroke="#D8DEE9" stroke-width="2"/>
  <rect x="536" y="356" width="8" height="164" rx="4" fill="#2563EB"/>
  <text x="576" y="414" fill="#111827" font-family="Arial, Helvetica, sans-serif" font-size="32" font-weight="800">Extraction pipeline</text>
  <text x="576" y="462" fill="#4B5563" font-family="Arial, Helvetica, sans-serif" font-size="24">Phrase extraction, synthesis,</text>
  <text x="576" y="496" fill="#4B5563" font-family="Arial, Helvetica, sans-serif" font-size="24">and quality scoring.</text>
  <rect x="1018" y="356" width="454" height="164" rx="18" fill="#F0FDF4" stroke="#BBF7D0" stroke-width="2"/>
  <rect x="1018" y="356" width="8" height="164" rx="4" fill="#16A34A"/>
  <text x="1058" y="414" fill="#14532D" font-family="Arial, Helvetica, sans-serif" font-size="32" font-weight="800">Notion databases</text>
  <text x="1058" y="462" fill="#166534" font-family="Arial, Helvetica, sans-serif" font-size="24">Speaker Phrase Library plus</text>
  <text x="1058" y="496" fill="#166534" font-family="Arial, Helvetica, sans-serif" font-size="24">Podcast and Video Digest.</text>
  <path d="M468 438H512" stroke="#94A3B8" stroke-width="6" stroke-linecap="round"/>
  <path d="M500 422L516 438L500 454" stroke="#94A3B8" stroke-width="6" stroke-linecap="round" stroke-linejoin="round"/>
  <path d="M950 438H994" stroke="#94A3B8" stroke-width="6" stroke-linecap="round"/>
  <path d="M982 422L998 438L982 454" stroke="#94A3B8" stroke-width="6" stroke-linecap="round" stroke-linejoin="round"/>
  <rect x="128" y="608" width="422" height="132" rx="18" fill="#F8FAFC" stroke="#D8DEE9" stroke-width="2"/>
  <text x="168" y="672" fill="#111827" font-family="Arial, Helvetica, sans-serif" font-size="38" font-weight="800">Phrase library</text>
  <text x="168" y="712" fill="#64748B" font-family="Arial, Helvetica, sans-serif" font-size="23">Reusable quotes and speaker patterns.</text>
  <rect x="590" y="608" width="422" height="132" rx="18" fill="#F8FAFC" stroke="#D8DEE9" stroke-width="2"/>
  <text x="630" y="672" fill="#111827" font-family="Arial, Helvetica, sans-serif" font-size="38" font-weight="800">Episode digest</text>
  <text x="630" y="712" fill="#64748B" font-family="Arial, Helvetica, sans-serif" font-size="23">Structured summary and takeaways.</text>
  <rect x="1052" y="608" width="420" height="132" rx="18" fill="#ECFDF5" stroke="#BBF7D0" stroke-width="2"/>
  <text x="1092" y="672" fill="#14532D" font-family="Arial, Helvetica, sans-serif" font-size="38" font-weight="800">Human eval</text>
  <text x="1092" y="712" fill="#166534" font-family="Arial, Helvetica, sans-serif" font-size="23">Manual quality scoring stays visible.</text>
</svg>
